<svg width="43" height="48" viewBox="0 0 43 48" fill="none" xmlns="http://www.w3.org/2000/svg">
    <path d="M21.0398 5.94141C16.1314 5.94141 12.1382 9.70837 12.1382 14.3386C12.1382 16.5859 13.0776 19.1359 14.6512 21.1599C16.431 23.4492 18.7 24.7101 21.0398 24.7101C23.3797 24.7101 25.6485 23.4494 27.4285 21.1599C29.0021 19.1359 29.9415 16.5859 29.9415 14.3386C29.9415 9.70837 25.9481 5.94141 21.0398 5.94141ZM21.0398 22.9198C19.3449 22.9198 17.5742 21.8925 16.1816 20.1011C14.8582 18.3989 14.036 16.1908 14.036 14.3386C14.036 10.6956 17.1779 7.73173 21.0398 7.73173C24.9017 7.73173 28.0435 10.6956 28.0435 14.3386C28.0436 18.1211 24.7459 22.9198 21.0398 22.9198Z" fill="white"/>
    <path d="M21.0399 0C9.43856 0 0 8.90366 0 19.8478C0 30.7918 9.43843 39.6956 21.0399 39.6956C32.6414 39.6956 42.0798 30.792 42.0798 19.8478C42.0798 8.90366 32.6413 0 21.0399 0ZM21.0399 37.9053C17.2317 37.9052 13.6799 36.8503 10.6949 35.0346C10.7987 32.2931 12.1143 29.7229 14.3419 27.9384C15.227 27.2293 16.5196 27.1519 17.5584 27.7457C18.6804 28.3871 19.8519 28.7123 21.0403 28.7123C22.2285 28.7123 23.3996 28.3872 24.5211 27.7461C25.5587 27.1529 26.8479 27.2275 27.7289 27.9317C29.9581 29.7137 31.2811 32.2913 31.3848 35.0348C28.3998 36.8504 24.848 37.9053 21.0399 37.9053ZM33.1737 33.8035C32.7639 31.0007 31.2744 28.4193 28.9558 26.5658C27.4514 25.3635 25.2739 25.2224 23.5375 26.2151C21.896 27.1533 20.1839 27.1532 18.542 26.2146C16.8035 25.2207 14.6221 25.3652 13.1133 26.5738C10.7967 28.4297 9.31317 31.0037 8.9045 33.8023C4.62938 30.4878 1.89786 25.4632 1.89786 19.8479C1.89786 9.89084 10.485 1.79033 21.0399 1.79033C31.5949 1.79033 40.182 9.89085 40.182 19.8478C40.182 25.4638 37.4498 30.489 33.1737 33.8035Z" fill="white"/>
    <path d="M33.9107 42.0576H8.16914C7.64508 42.0576 7.22021 42.4584 7.22021 42.9528C7.22021 43.4472 7.64508 43.8479 8.16914 43.8479H33.9107C34.4348 43.8479 34.8596 43.4472 34.8596 42.9528C34.8598 42.4584 34.4348 42.0576 33.9107 42.0576Z" fill="white"/>
    <path d="M33.9107 46.2095H8.16914C7.64508 46.2095 7.22021 46.6103 7.22021 47.1046C7.22021 47.599 7.64508 47.9998 8.16914 47.9998H33.9107C34.4348 47.9998 34.8596 47.599 34.8596 47.1046C34.8598 46.6103 34.4348 46.2095 33.9107 46.2095Z" fill="white"/>
</svg>
